<svg xmlns="http://www.w3.org/2000/svg" data-name="Layer 1" viewBox="0 0 32 32"><path fill="#82c8ec" d="M16.5.5h8a1,1,0,0,1,1,1v4a1,1,0,0,1-1,1H21.621L21,8.121,19.379,6.5H16.5a1,1,0,0,1-1-1v-4A1,1,0,0,1,16.5.5Z"/><path fill="#d9d8da" d="M22.5,4h-4a.5.5,0,0,1,0-1h4a.5.5,0,0,1,0,1Z"/><path fill="#57565d" d="M29.5 32a.5.5 0 0 1-.5-.5v-14a.5.5 0 0 1 1 0v14A.5.5 0 0 1 29.5 32zM15.5 32a.5.5 0 0 1-.5-.5v-14a.5.5 0 0 1 1 0v14A.5.5 0 0 1 15.5 32z"/><path fill="#57565d" d="M31.5 18h-19a.5.5 0 0 1 0-1h19a.5.5 0 0 1 0 1zM29.5 20h-14a.5.5 0 0 1 0-1h14a.5.5 0 0 1 0 1z"/><path fill="#d9d8da" d="M25.377,8.859,24.5,15h-6a1,1,0,0,0-1,1v1h8.1a1,1,0,0,0,.994-.89L27.5,8H26.367A1,1,0,0,0,25.377,8.859Z"/><path fill="#57565d" d="M.5,32a.5.5,0,0,1-.5-.5v-15a.5.5,0,0,1,1,0v15A.5.5,0,0,1,.5,32Z"/><path fill="#57565d" d="M7.5,32a.5.5,0,0,1-.5-.5V25H.5a.5.5,0,0,1,0-1h7a.5.5,0,0,1,.5.5v7A.5.5,0,0,1,7.5,32Z"/><rect width="3" height="3" x="4.5" y="9" fill="#fcc37a"/><path fill="#ffd9aa" d="M9.5,6.5A3.492,3.492,0,0,1,2.85,8,3.281,3.281,0,0,1,2.5,6.5,3.5,3.5,0,0,1,9.19,5.07,3.432,3.432,0,0,1,9.5,6.5Z"/><path fill="#416fb3" d="M2.5,19v4a1,1,0,0,0,1,1h6v6.5A1.5,1.5,0,0,0,11,32h0a1.5,1.5,0,0,0,1.5-1.5V21.82a1,1,0,0,0-.8-.981Z"/><path fill="#ed456a" d="M15.5,15.5A1.5,1.5,0,0,1,14,17H9.5v3.4L2.5,19V13a2.015,2.015,0,0,1,2-2H6.8a1.986,1.986,0,0,1,1.25.44L11.25,14H14A1.5,1.5,0,0,1,15.5,15.5Z"/><path fill="#57565d" d="M9.19,5.07,4.9,5.92a.5.5,0,0,0-.4.49V7.5A.5.5,0,0,1,4,8H2.85a3.406,3.406,0,0,1-.3-2.093A3.5,3.5,0,0,1,9.19,5.07Z"/><path fill="#ffd9aa" d="M15.5,15.5A1.5,1.5,0,0,1,14,17h-.5V14H14A1.5,1.5,0,0,1,15.5,15.5Z"/><rect width="1" height="3" x="12.5" y="13.97" fill="#e13442"/></svg>